<svg width="32" height="32" viewBox="0 0 32 32" fill="none" xmlns="http://www.w3.org/2000/svg">
<circle cx="15.6496" cy="15.8558" r="15.4585" fill="black" fill-opacity="0.7"/>
<path fill-rule="evenodd" clip-rule="evenodd" d="M7.40503 15.8556C7.40503 15.5823 7.51359 15.3202 7.70684 15.127C7.90009 14.9337 8.16219 14.8252 8.43548 14.8252H20.3743L15.9495 10.4028C15.756 10.2093 15.6473 9.9469 15.6473 9.67328C15.6473 9.39966 15.756 9.13725 15.9495 8.94377C16.143 8.7503 16.4054 8.6416 16.6791 8.6416C16.9527 8.6416 17.2151 8.7503 17.4086 8.94377L23.5913 15.126C23.6873 15.2218 23.7634 15.3355 23.8154 15.4606C23.8673 15.5858 23.8941 15.72 23.8941 15.8556C23.8941 15.9911 23.8673 16.1253 23.8154 16.2505C23.7634 16.3756 23.6873 16.4893 23.5913 16.5851L17.4086 22.7673C17.2151 22.9608 16.9527 23.0695 16.6791 23.0695C16.4054 23.0695 16.143 22.9608 15.9495 22.7673C15.756 22.5739 15.6473 22.3114 15.6473 22.0378C15.6473 21.7642 15.756 21.5018 15.9495 21.3083L20.3743 16.8859H8.43548C8.16219 16.8859 7.90009 16.7774 7.70684 16.5841C7.51359 16.3909 7.40503 16.1288 7.40503 15.8556Z" fill="white"/>
</svg>
