<svg width="403" height="771" viewBox="0 0 403 771" fill="none" xmlns="http://www.w3.org/2000/svg">
<path d="M280.528 12.916C292.528 -9.08404 366.861 39.7493 402.528 66.916V770.416C303.694 682.749 123.728 510.016 194.528 520.416C283.028 533.416 202.028 296.416 87.0278 323.916C-4.97217 345.916 2.02783 283.749 17.0278 249.916C42.6945 224.249 78.6278 151.716 17.0278 66.916C-44.5722 -17.884 75.6945 -4.41738 143.528 12.916C184.195 22.0826 268.528 34.916 280.528 12.916Z" fill="#E2E8F0" fill-opacity="0.3"/>
<circle r="33" transform="matrix(-1 0 0 1 296.528 163)" fill="#C4C4C4" fill-opacity="0.18"/>
<path d="M378.844 131.042C370.815 121.942 358.317 119.631 346.752 118.262C332.902 116.621 319.455 115.706 305.501 115.706C287.988 115.706 270.474 115.706 252.961 115.706" stroke="#C4C4C4" stroke-opacity="0.23" stroke-width="3" stroke-linecap="round"/>
</svg>
