<svg width="1448" height="696" viewBox="0 0 1448 696" fill="none" xmlns="http://www.w3.org/2000/svg">
<circle cx="1356" cy="577" r="23" fill="#FF9B5B" fill-opacity="0.5"/>
<path d="M233.39 69.9092L216.882 71.8497L226.118 86.5027L234.99 72.4472L233.39 69.9092ZM425.425 67.1691L420.993 55.7516L409.575 60.1834L414.007 71.6009L425.425 67.1691ZM233.666 73.2803C303.132 33.1314 383.797 50.4604 416.895 65.0488L418.105 62.3036C384.528 47.5041 302.774 29.8733 232.165 70.6829L233.666 73.2803Z" fill="#4BD8C0"/>
<circle cx="1042.5" cy="60.5" r="12.5" fill="#FF9B5B" fill-opacity="0.3"/>
<circle cx="1187.5" cy="197.5" r="12.5" fill="#865BFF" fill-opacity="0.3"/>
<circle cx="459.5" cy="172.5" r="12.5" fill="#6791B9" fill-opacity="0.3"/>
<circle cx="652.5" cy="12.5" r="12.5" fill="#ED85AD" fill-opacity="0.3"/>
<circle cx="135.5" cy="525.5" r="12.5" fill="#ED85AD" fill-opacity="0.3"/>
<path d="M856.061 72.0607C856.646 71.4749 856.646 70.5251 856.061 69.9393L846.515 60.3934C845.929 59.8076 844.979 59.8076 844.393 60.3934C843.808 60.9792 843.808 61.9289 844.393 62.5147L852.879 71L844.393 79.4853C843.808 80.0711 843.808 81.0208 844.393 81.6066C844.979 82.1924 845.929 82.1924 846.515 81.6066L856.061 72.0607ZM806 72.5L855 72.5L855 69.5L806 69.5L806 72.5Z" fill="#C3B091" fill-opacity="0.5"/>
<path d="M50.0607 269.061C50.6464 268.475 50.6464 267.525 50.0607 266.939L40.5147 257.393C39.9289 256.808 38.9792 256.808 38.3934 257.393C37.8076 257.979 37.8076 258.929 38.3934 259.515L46.8787 268L38.3934 276.485C37.8076 277.071 37.8076 278.021 38.3934 278.607C38.9792 279.192 39.9289 279.192 40.5147 278.607L50.0607 269.061ZM-1.31134e-07 269.5L49 269.5L49 266.5L1.31134e-07 266.5L-1.31134e-07 269.5Z" fill="#FF5C5C" fill-opacity="0.5"/>
<path d="M272.061 207.061C272.646 206.475 272.646 205.525 272.061 204.939L262.515 195.393C261.929 194.808 260.979 194.808 260.393 195.393C259.808 195.979 259.808 196.929 260.393 197.515L268.879 206L260.393 214.485C259.808 215.071 259.808 216.021 260.393 216.607C260.979 217.192 261.929 217.192 262.515 216.607L272.061 207.061ZM222 207.5L271 207.5L271 204.5L222 204.5L222 207.5Z" fill="#3DFFA2" fill-opacity="0.5"/>
<path d="M372.061 601.061C372.646 600.475 372.646 599.525 372.061 598.939L362.515 589.393C361.929 588.808 360.979 588.808 360.393 589.393C359.808 589.979 359.808 590.929 360.393 591.515L368.879 600L360.393 608.485C359.808 609.071 359.808 610.021 360.393 610.607C360.979 611.192 361.929 611.192 362.515 610.607L372.061 601.061ZM322 601.5L371 601.5L371 598.5L322 598.5L322 601.5Z" fill="#C3B091" fill-opacity="0.5"/>
<path d="M1176.06 477.061C1176.65 476.475 1176.65 475.525 1176.06 474.939L1166.51 465.393C1165.93 464.808 1164.98 464.808 1164.39 465.393C1163.81 465.979 1163.81 466.929 1164.39 467.515L1172.88 476L1164.39 484.485C1163.81 485.071 1163.81 486.021 1164.39 486.607C1164.98 487.192 1165.93 487.192 1166.51 486.607L1176.06 477.061ZM1126 477.5L1175 477.5L1175 474.5L1126 474.5L1126 477.5Z" fill="#9F7AEA" fill-opacity="0.5"/>
<path d="M1337.06 64.0607C1337.65 63.4749 1337.65 62.5251 1337.06 61.9393L1327.51 52.3934C1326.93 51.8076 1325.98 51.8076 1325.39 52.3934C1324.81 52.9792 1324.81 53.9289 1325.39 54.5147L1333.88 63L1325.39 71.4853C1324.81 72.0711 1324.81 73.0208 1325.39 73.6066C1325.98 74.1924 1326.93 74.1924 1327.51 73.6066L1337.06 64.0607ZM1287 64.5L1336 64.5L1336 61.5L1287 61.5L1287 64.5Z" fill="#FB46E9" fill-opacity="0.5"/>
<path d="M1230.02 614.234C1229.19 614.224 1228.51 614.888 1228.5 615.716L1228.34 629.215C1228.33 630.043 1229 630.723 1229.83 630.732C1230.65 630.742 1231.33 630.078 1231.34 629.25L1231.48 617.251L1243.48 617.391C1244.31 617.4 1244.99 616.737 1245 615.908C1245.01 615.08 1244.34 614.401 1243.52 614.391L1230.02 614.234ZM1305.49 693L1304.41 694.048L1305.98 695.652L1306.86 693.591L1305.49 693ZM1356.54 574L1357.54 572.879L1355.99 571.497L1355.17 573.409L1356.54 574ZM1228.93 616.782L1304.41 694.048L1306.56 691.952L1231.07 614.685L1228.93 616.782ZM1306.86 693.591L1357.92 574.591L1355.17 573.409L1304.11 692.409L1306.86 693.591ZM1355.55 575.121L1446 655.488L1448 653.245L1357.54 572.879L1355.55 575.121Z" fill="#4BD8C0"/>
</svg>
