<svg width="150" height="57" viewBox="0 0 150 57" fill="none" xmlns="http://www.w3.org/2000/svg">
<ellipse cx="146.959" cy="3" rx="3.04054" ry="3" transform="rotate(-180 146.959 3)" fill="#4299E1"/>
<ellipse cx="66.8918" cy="3" rx="3.04054" ry="3" transform="rotate(-180 66.8918 3)" fill="#4299E1"/>
<ellipse cx="146.959" cy="37" rx="3.04054" ry="3" transform="rotate(-180 146.959 37)" fill="#4299E1"/>
<ellipse cx="66.8918" cy="37" rx="3.04054" ry="3" transform="rotate(-180 66.8918 37)" fill="#4299E1"/>
<ellipse cx="146.959" cy="20" rx="3.04054" ry="3" transform="rotate(-180 146.959 20)" fill="#4299E1"/>
<ellipse cx="66.8918" cy="20" rx="3.04054" ry="3" transform="rotate(-180 66.8918 20)" fill="#4299E1"/>
<ellipse cx="146.959" cy="54" rx="3.04054" ry="3" transform="rotate(-180 146.959 54)" fill="#4299E1"/>
<ellipse cx="66.8918" cy="54" rx="3.04054" ry="3" transform="rotate(-180 66.8918 54)" fill="#4299E1"/>
<ellipse cx="130.743" cy="3" rx="3.04054" ry="3" transform="rotate(-180 130.743 3)" fill="#4299E1"/>
<ellipse cx="50.6758" cy="3" rx="3.04054" ry="3" transform="rotate(-180 50.6758 3)" fill="#4299E1"/>
<ellipse cx="130.743" cy="37" rx="3.04054" ry="3" transform="rotate(-180 130.743 37)" fill="#4299E1"/>
<ellipse cx="50.6758" cy="37" rx="3.04054" ry="3" transform="rotate(-180 50.6758 37)" fill="#4299E1"/>
<ellipse cx="130.743" cy="20" rx="3.04054" ry="3" transform="rotate(-180 130.743 20)" fill="#4299E1"/>
<ellipse cx="50.6758" cy="20" rx="3.04054" ry="3" transform="rotate(-180 50.6758 20)" fill="#4299E1"/>
<ellipse cx="130.743" cy="54" rx="3.04054" ry="3" transform="rotate(-180 130.743 54)" fill="#4299E1"/>
<ellipse cx="50.6758" cy="54" rx="3.04054" ry="3" transform="rotate(-180 50.6758 54)" fill="#4299E1"/>
<ellipse cx="114.527" cy="3" rx="3.04054" ry="3" transform="rotate(-180 114.527 3)" fill="#4299E1"/>
<ellipse cx="35.4729" cy="3" rx="3.04054" ry="3" transform="rotate(-180 35.4729 3)" fill="#4299E1"/>
<ellipse cx="114.527" cy="37" rx="3.04054" ry="3" transform="rotate(-180 114.527 37)" fill="#4299E1"/>
<ellipse cx="35.4729" cy="37" rx="3.04054" ry="3" transform="rotate(-180 35.4729 37)" fill="#4299E1"/>
<ellipse cx="114.527" cy="20" rx="3.04054" ry="3" transform="rotate(-180 114.527 20)" fill="#4299E1"/>
<ellipse cx="35.4729" cy="20" rx="3.04054" ry="3" transform="rotate(-180 35.4729 20)" fill="#4299E1"/>
<ellipse cx="114.527" cy="54" rx="3.04054" ry="3" transform="rotate(-180 114.527 54)" fill="#4299E1"/>
<ellipse cx="35.4729" cy="54" rx="3.04054" ry="3" transform="rotate(-180 35.4729 54)" fill="#4299E1"/>
<ellipse cx="99.3242" cy="3" rx="3.04054" ry="3" transform="rotate(-180 99.3242 3)" fill="#4299E1"/>
<ellipse cx="19.2568" cy="3" rx="3.04054" ry="3" transform="rotate(-180 19.2568 3)" fill="#4299E1"/>
<ellipse cx="99.3242" cy="37" rx="3.04054" ry="3" transform="rotate(-180 99.3242 37)" fill="#4299E1"/>
<ellipse cx="19.2568" cy="37" rx="3.04054" ry="3" transform="rotate(-180 19.2568 37)" fill="#4299E1"/>
<ellipse cx="99.3242" cy="20" rx="3.04054" ry="3" transform="rotate(-180 99.3242 20)" fill="#4299E1"/>
<ellipse cx="19.2568" cy="20" rx="3.04054" ry="3" transform="rotate(-180 19.2568 20)" fill="#4299E1"/>
<ellipse cx="99.3242" cy="54" rx="3.04054" ry="3" transform="rotate(-180 99.3242 54)" fill="#4299E1"/>
<ellipse cx="19.2568" cy="54" rx="3.04054" ry="3" transform="rotate(-180 19.2568 54)" fill="#4299E1"/>
<ellipse cx="83.1081" cy="3" rx="3.04054" ry="3" transform="rotate(-180 83.1081 3)" fill="#4299E1"/>
<ellipse cx="3.04051" cy="3" rx="3.04054" ry="3" transform="rotate(-180 3.04051 3)" fill="#4299E1"/>
<ellipse cx="83.1081" cy="37" rx="3.04054" ry="3" transform="rotate(-180 83.1081 37)" fill="#4299E1"/>
<ellipse cx="3.04051" cy="37" rx="3.04054" ry="3" transform="rotate(-180 3.04051 37)" fill="#4299E1"/>
<ellipse cx="83.1081" cy="20" rx="3.04054" ry="3" transform="rotate(-180 83.1081 20)" fill="#4299E1"/>
<ellipse cx="3.04051" cy="20" rx="3.04054" ry="3" transform="rotate(-180 3.04051 20)" fill="#4299E1"/>
<ellipse cx="83.1081" cy="54" rx="3.04054" ry="3" transform="rotate(-180 83.1081 54)" fill="#4299E1"/>
<ellipse cx="3.04051" cy="54" rx="3.04054" ry="3" transform="rotate(-180 3.04051 54)" fill="#4299E1"/>
</svg>
