<svg width="217" height="59" viewBox="0 0 217 59" fill="none" xmlns="http://www.w3.org/2000/svg">
<path d="M6.25994 15.2901C8.67647 13.4791 11.3302 12.2428 14.1944 11.4141C23.0822 8.84247 32.6715 7.60504 41.7773 6.23879C61.8159 3.23216 82.6386 3.04437 102.852 3.00148C122.305 2.96019 141.784 3.78737 161.191 5.22575C173.857 6.16445 186.48 8.4743 199.026 10.4451C203.455 11.1408 207.814 12.4302 212.265 12.9116C213.791 13.0767 213.103 13.308 212.077 13.308C207.74 13.308 203.413 12.8805 199.11 12.339C176.116 9.44588 152.973 8.97964 129.85 8.57318C120.68 8.41199 111.481 7.85589 102.309 8.24285C92.4761 8.65769 82.5531 8.00085 72.7427 8.77139C64.6864 9.40414 56.676 10.3205 48.6469 11.2379C39.7343 12.2563 30.7906 12.6491 21.9201 14.1008C16.1027 15.0529 9.89668 16.8646 5.1324 20.5314C4.68876 20.8729 4.27485 21.2594 3.83783 21.6105C3.57318 21.8232 2.80912 22.0011 3.04438 22.2492C3.28233 22.5002 9.4857 20.9312 10.0184 20.8398C16.9224 19.6544 24.0374 17.885 31.0448 17.6905C44.5127 17.3167 57.8631 14.8277 71.3019 14.1008C86.5716 13.2749 101.903 12.1188 117.197 12.1188C131.475 12.1188 145.884 11.6393 160.106 13.1098C166.597 13.781 173.065 14.3109 179.566 14.8937C184.793 15.3623 189.761 16.4865 194.934 17.2721C199.609 17.9821 204.336 18.7292 208.945 19.8267C209.867 20.0463 210.783 20.3302 211.722 20.4433C212.233 20.505 215.227 20.576 213.434 20.9278C208.139 21.9668 202.412 21.0891 197.043 21.2582C189.703 21.4893 182.435 22.029 175.077 22.029C146.476 22.029 118.103 18.0649 89.5304 18.0649C74.3896 18.0649 59.253 17.9105 44.1367 18.9458C37.8602 19.3757 31.6306 19.7197 25.4907 21.2141C22.4568 21.9526 19.3613 22.0332 16.4077 23.1301C13.6027 24.1718 10.3386 24.5534 7.76332 26.2133C6.77562 26.8499 5.94729 27.7227 4.94448 28.3495C4.23284 28.7942 2.37655 29.6179 4.33895 29.1643C11.3871 27.535 18.8811 27.4351 26.0335 26.3894C33.7654 25.2591 41.8255 24.8138 49.6282 24.4074C64.2173 23.6476 78.8673 24.011 93.4768 24.011C108.03 24.011 122.584 24.011 137.137 24.011C152.824 24.011 168.49 24.8697 184.16 25.2002C191.484 25.3547 198.811 27.5787 206.084 27.5787C207.193 27.5787 213.654 28.3131 210.177 28.6798C204.079 29.323 197.926 29.5607 191.802 29.5607C180.775 29.5607 169.704 29.8482 158.686 29.3845C145.656 28.8362 132.644 28.0457 119.598 28.4596C111.795 28.7071 103.715 28.5779 96.0451 30.3755C88.9618 32.0357 81.3004 31.3205 74.079 31.9391C65.9229 32.6378 57.6374 33.1328 49.4612 33.5248C44.5439 33.7605 39.6513 34.3604 34.7406 34.714C31.4171 34.9533 28.0052 34.8764 24.7181 35.5068C20.8834 36.2421 16.7509 36.8156 13.1922 38.5899C11.7198 39.3241 9.43012 40.6251 12.6493 39.4268C24.6889 34.9451 38.1739 34.7299 50.7767 34.4057C59.7147 34.1757 68.5986 34.2076 77.5243 33.5248C87.1022 32.792 96.7164 32.2463 106.318 32.0272C122.3 31.6625 138.262 32.3355 154.238 32.3355C165.636 32.3355 176.884 32.6228 188.252 33.5248C192.494 33.8613 196.757 33.8598 200.989 34.3176C201.967 34.4234 202.96 34.534 203.933 34.6919C205.324 34.9175 201.131 34.4241 199.736 34.2295C174.595 30.7199 149.49 27.3013 124.108 26.3674C109.144 25.8168 94.3334 24.011 79.3408 24.011C73.4179 24.011 67.1464 23.288 61.3629 24.7818C50.3456 27.6275 38.7257 29.0402 27.4534 30.0892C25.1502 30.3036 30.3188 27.5828 30.4393 27.5346C38.6834 24.2396 47.7149 22.7058 56.3308 20.9278C70.1638 18.0733 84.0114 15.5747 98.1122 15.268C110.839 14.9913 123.332 15.0481 136.01 15.9948C155.45 17.4464 213.942 17.6685 194.454 17.6685C167.584 17.6685 140.629 17.7612 113.793 19.166C103.16 19.7227 92.516 20.1739 81.8882 20.8398C77.425 21.1194 72.9691 21.8473 68.504 22.007C64.7864 22.1399 61.4226 22.8757 57.7924 23.7027C54.4691 24.4598 50.9682 25.1061 47.8534 26.5876C45.5828 27.6677 43.6308 29.2485 41.4223 30.4416C38.9473 31.7786 36.3925 32.9809 34.0307 34.5378C32.3537 35.6432 34.8513 33.1986 35.2626 32.9522C37.5403 31.5873 40.1928 31.2408 42.7586 30.9701C48.6325 30.3506 54.647 30.681 60.5486 30.4416C68.482 30.1198 76.4032 31.1463 84.3521 31.1463C92.1526 31.1463 99.7428 31.5631 107.529 32.2474C109.949 32.4601 112.368 32.6416 114.796 32.7099C115.089 32.7182 116.623 32.9146 117.051 32.6439C117.353 32.4527 112.714 30.8334 112.478 30.7719C107.535 29.4887 102.601 29.1327 97.5484 28.3715C91.9686 27.5307 86.1639 27.9751 80.531 27.9751C71.9243 27.9751 62.8647 26.5219 54.3681 28.4596C43.8211 30.8647 32.759 29.2829 22.1707 30.7719C18.614 31.2721 14.7724 32.5188 12.1482 35.2866C11.5442 35.9235 9.6935 42.5681 10.4986 42.3558C21.9455 39.3375 33.6779 38.2891 45.2643 35.9913C53.5158 34.3548 61.6521 32.2424 69.8612 30.4196C76.8059 28.8776 84.6509 29.1643 91.702 29.1643C102.54 29.1643 113.335 30.1228 124.108 31.2344C142.696 33.1523 161.361 33.8593 179.984 35.1985C183.235 35.4323 186.413 35.9032 189.672 35.9032C202.66 35.9032 163.697 35.9993 150.71 35.8812C131.719 35.7085 112.654 34.8859 93.6647 35.5949C88.751 35.7783 83.7713 35.8381 78.8815 36.3877C74.7674 36.8501 70.9005 38.1703 66.8753 39.0524C55.3065 41.5878 43.6875 41.506 31.9844 42.554C29.6581 42.7623 27.5772 43.5985 25.2819 43.8533C23.9876 43.997 28.6654 43.2768 28.8106 43.2587C36.7682 42.266 44.8661 42.2865 52.8647 42.2457C67.5008 42.1709 81.9971 40.1004 96.6088 39.8893C114.613 39.6292 132.442 41.8147 150.313 43.8093C161.759 45.0867 173.249 45.7529 184.703 46.9145C186.764 47.1235 188.628 47.4791 190.633 48.0156C190.662 48.0234 192.175 48.2761 190.988 48.1477C187.924 47.8163 184.871 47.3665 181.821 46.9145C172.973 45.603 164.152 44.14 155.22 43.6551C148.131 43.2703 141.017 43.4349 133.922 43.4349C114.861 43.4349 95.5809 42.568 76.5429 43.6111C66.8986 44.1395 57.2689 45.2128 47.7073 46.6282C40.6809 47.6683 34.0491 50.0974 27.1402 51.6713C25.0684 52.1433 23.0741 52.4522 21.0849 53.257C19.4614 53.9138 18.0949 55.2296 16.4913 55.8336C13.7679 56.8595 21.5682 52.8467 24.3005 51.8475C33.426 48.5105 43.3266 47.7146 52.9064 47.2228C91.7304 45.2298 130.546 43.4349 169.418 43.4349C178.521 43.4349 187.249 44.2871 196.27 45.4169C199.691 45.8454 202.886 46.8983 206.209 47.399" stroke="#FBFE58" stroke-width="5" stroke-linecap="round"/>
</svg>
