<svg width="296" height="39" viewBox="0 0 296 39" fill="none" xmlns="http://www.w3.org/2000/svg">
<path d="M11.4299 8.34794C18.8294 5.51511 26.8703 4.4547 34.798 3.96518C41.9212 3.52533 49.1835 3.06151 56.3249 3.06151C69.3746 3.06151 82.1623 2.92311 95.1772 3.06151C106.024 3.17686 116.809 3.39181 127.633 3.85222C141.176 4.4283 154.635 5.5014 168.208 5.5014C179.552 5.5014 190.844 6.72135 202.198 6.72135C213.643 6.72135 225.083 7.43947 236.518 7.53464C248.869 7.63743 261.285 7.08484 273.624 7.55723C278.142 7.73018 282.402 8.19456 286.842 8.75459C287.591 8.84898 295.853 9.34411 291.965 9.54529C288.378 9.73086 284.815 9.86985 281.225 9.99712C269.6 10.4092 258.152 11.4883 246.479 11.6011C232.901 11.7324 219.072 11.4194 205.55 12.6177C205.529 12.6196 205.508 12.6215 205.487 12.6233M205.487 12.6233C204.508 12.7094 203.53 12.7805 202.552 12.8379M205.487 12.6233C205.614 12.7686 205.692 12.9141 205.709 13.0576M205.487 12.6233C204.499 11.493 200.579 10.3812 199.791 10.3812C195.796 10.3812 191.788 9.56788 187.8 9.56788C182.825 9.56788 177.887 9.9443 172.929 9.97453C167.342 10.0086 161.785 10.3087 156.232 10.6685M202.552 12.8379C195.164 13.2723 187.792 12.9298 180.428 12.4065M202.552 12.8379C200.724 12.7513 198.924 12.7144 197.288 12.6177C191.683 12.2866 186.048 12.3764 180.428 12.4065M202.552 12.8379C203.604 12.8878 204.665 12.9541 205.709 13.0576M180.428 12.4065C178.981 12.3037 177.535 12.1939 176.088 12.0816M180.428 12.4065C180.289 12.4073 180.151 12.408 180.012 12.4086M176.088 12.0816C169.037 11.5343 161.991 10.9284 154.943 10.7878C154.813 10.7852 154.684 10.7822 154.554 10.7787M176.088 12.0816C173.696 11.8806 171.306 11.6814 168.916 11.5108C164.682 11.2083 160.456 10.9228 156.232 10.6685M176.088 12.0816C177.396 12.1915 178.703 12.302 180.012 12.4086M154.554 10.7787C151.604 10.6994 148.664 10.3928 145.719 10.108M154.554 10.7787C155.113 10.7415 155.672 10.7047 156.232 10.6685M154.554 10.7787C148.445 11.1853 142.337 11.6389 136.196 11.8643M145.719 10.108C142.816 9.82738 139.908 9.56788 136.98 9.56788C130.634 9.56788 124.082 9.26177 117.743 8.84495C100.73 7.7263 83.7546 5.90805 66.6871 5.90805C61.7682 5.90805 56.8446 6.3147 51.9582 6.3147C46.3059 6.3147 41.1755 7.32938 35.6477 8.25757C30.5532 9.113 25.5962 10.9372 20.6827 12.5048C17.5039 13.519 14.2102 14.2323 11.0523 15.2835C9.37783 15.841 4.39339 17.2942 6.16623 17.2942C7.71527 17.2942 9.35154 16.0823 10.8634 15.758C15.7385 14.7122 21.2082 14.5212 26.2061 14.4477C33.2918 14.3433 40.3869 14.4477 47.4734 14.4477C53.008 14.4477 58.4327 13.6357 63.9254 13.0244C67.2702 12.6521 70.6461 12.411 74.0201 12.1515M145.719 10.108C138.373 9.77291 131.018 9.56788 123.62 9.56788C117.455 9.56788 111.047 9.54211 104.902 10.0649C102.37 10.2803 99.8192 10.4675 97.2701 10.6033M145.719 10.108C149.224 10.2679 152.727 10.4575 156.232 10.6685M74.0201 12.1515C78.0732 11.8398 82.1234 11.5017 86.1133 10.8782C88.4924 10.5064 91.0548 10.8393 93.4541 10.7652C94.724 10.726 95.9968 10.6711 97.2701 10.6033M74.0201 12.1515C92.2775 12.4122 110.592 12.0078 128.837 12.0078C131.296 12.0078 133.749 11.9542 136.196 11.8643M74.0201 12.1515C71.2753 12.1123 68.5319 12.0581 65.7901 11.9852C56.6522 11.7422 47.5641 9.75287 38.4802 9.56788C37.2304 9.54243 35.9772 9.56788 34.7272 9.56788C29.9566 9.56788 44.2149 8.48052 48.984 8.37053C65.1708 7.99722 81.1583 9.70515 97.2701 10.6033M97.2701 10.6033C99.1356 10.7073 101.003 10.8004 102.872 10.8782C113.968 11.3399 125.084 11.6803 136.196 11.8643M180.012 12.4086C185.149 12.8276 190.294 13.1883 195.447 13.2277C198.787 13.2533 202.162 13.345 205.533 13.514M180.012 12.4086C179.279 12.4121 178.547 12.4144 177.815 12.4144C168.375 12.4144 158.949 12.0531 149.514 12.0078C145.076 11.9864 140.636 11.9379 136.196 11.8643M205.533 13.514C207.014 13.5883 208.495 13.6775 209.971 13.7827M205.533 13.514C205.523 13.524 205.513 13.534 205.503 13.544C204.867 14.1529 201.634 13.6952 200.711 13.8377C198.6 14.1636 196.402 14.0803 194.267 14.041C172.398 13.6385 150.682 13.046 128.837 14.0184C117.959 14.5027 107.083 14.6649 96.2158 15.5772C94.6263 15.7107 93.0424 15.8553 91.4624 16.0096M205.533 13.514C205.674 13.3662 205.728 13.2131 205.709 13.0576M209.971 13.7827C211.787 13.9119 213.597 14.0652 215.393 14.2443C228.001 15.5014 241.027 16.0743 253.702 16.0743C265.221 16.0743 276.63 18.9208 288.093 18.9208C302.965 18.9208 258.35 19.6434 243.482 19.35C236.158 19.2055 228.594 18.9201 221.317 19.6437C216.885 20.0845 211.977 19.9783 207.556 19.5082C202.969 19.0203 198.521 19.0382 193.913 18.8982C190.057 18.781 186.209 18.5043 182.361 18.2464M209.971 13.7827C208.635 13.4264 207.189 13.2045 205.709 13.0576M209.971 13.7827C210.474 13.9165 210.96 14.0694 211.427 14.2443C213.026 14.8429 215.128 14.8543 212.112 14.8543C208.758 14.8543 205.897 15.4757 202.623 16.0743C198.113 16.8988 193.526 16.5912 188.98 16.9779C186.754 17.1673 184.552 17.6504 182.361 18.2464M182.361 18.2464C180.106 18.0953 177.852 17.9507 175.596 17.8484M182.361 18.2464C182.12 18.3119 181.879 18.3788 181.639 18.4467M175.596 17.8484C173.607 17.7582 171.617 17.7008 169.625 17.7008M175.596 17.8484C174.458 17.7595 173.318 17.7008 172.174 17.7008H169.625M175.596 17.8484C177.612 18.0058 179.622 18.2581 181.639 18.4467M169.625 17.7008C147.927 17.7008 126.284 16.0743 104.595 16.0743C100.219 16.0743 95.8415 16.0483 91.4624 16.0096M169.625 17.7008H144.321C124.507 17.7008 104.637 18.5071 84.8859 19.9148C76.1018 20.5409 67.2874 20.6165 58.4747 20.5952M91.4624 16.0096C78.4966 15.8948 65.5201 15.6676 52.5483 15.6676C40.2735 15.6676 28.1151 16.7752 16.0799 19.1467C13.2275 19.7088 10.2571 20.0923 7.60608 21.2703C6.54499 21.7418 4.95497 21.8564 4.0011 22.5711M91.4624 16.0096C82.882 16.8473 74.4199 17.969 65.8374 19.1241C63.3245 19.4623 60.8826 19.9813 58.4747 20.5952M4.0011 22.5711C3.9583 22.6031 3.91677 22.6364 3.87663 22.671C3.66015 22.8575 2.94577 23.1913 3.00328 23.1454C3.29456 22.9131 3.63233 22.7254 4.0011 22.5711ZM4.0011 22.5711C5.5575 21.9198 7.66625 21.864 9.16395 21.564C20.6115 19.2708 33.1549 20.5474 44.8061 20.5474C49.3589 20.5474 53.9166 20.5843 58.4747 20.5952M58.4747 20.5952C52.7507 22.0546 47.2188 24.05 41.3835 25.4272C40.1241 25.7244 38.8613 26.0167 37.5972 26.3082M181.639 18.4467C182.291 18.5078 182.944 18.5621 183.598 18.6045C187.249 18.8409 190.933 18.7676 194.55 19.2371C194.859 19.2772 195.169 19.3166 195.478 19.3553M181.639 18.4467C180.649 18.7263 179.662 19.025 178.675 19.3259M195.478 19.3553C212.408 21.475 229.759 21.5804 246.55 24.7946C249.622 25.3825 252.818 25.4232 255.994 25.5625M195.478 19.3553C203.815 19.4465 212.142 19.729 220.468 20.5474C230.102 21.4944 239.705 23.2956 249.312 24.5235C250.878 24.7237 253.406 25.1338 255.994 25.5625M195.478 19.3553C189.882 19.2941 184.282 19.319 178.675 19.3259M255.994 25.5625C258.822 25.6864 261.633 25.8885 264.324 26.6245C267.667 27.5387 261.687 26.5056 255.994 25.5625ZM178.675 19.3259C177.909 19.3268 177.142 19.3274 176.375 19.3274C172.291 19.3274 168.199 19.2213 164.125 19.5308C160.083 19.8378 155.629 19.2955 151.685 20.3441C147.064 21.5726 141.098 21.7673 136.296 21.7673C131.186 21.7673 126.147 22.174 121.047 22.174C108.438 22.174 95.8916 22.9873 83.3044 22.9873C73.3313 22.9873 63.5846 24.2836 53.6813 25.3368C49.1868 25.8147 44.3929 26.1886 39.8965 26.2404C39.1783 26.2487 38.403 26.2681 37.5972 26.3082M178.675 19.3259C176.069 20.1208 173.468 20.9318 170.852 21.451C159.624 23.6796 148.337 23.5834 136.956 24.4331C133.147 24.7176 129.614 25.8338 125.815 25.8338C111.034 25.8338 96.0205 26.205 81.2404 27.4879M37.5972 26.3082C34.3054 26.4717 30.5039 26.9792 28 28.477C27.8871 28.5446 27.7686 28.6039 27.6455 28.6564M37.5972 26.3082C34.2758 27.0739 30.9455 27.8331 27.6455 28.6564M27.6455 28.6564C27.2412 28.8285 26.7866 28.926 26.3132 28.9928M27.6455 28.6564C27.2008 28.7673 26.7567 28.8794 26.3132 28.9928M26.3132 28.9928C25.3373 29.1307 24.2814 29.1385 23.4208 29.4033C22.6556 29.6387 20.3983 30.3069 21.202 30.3069C22.7911 30.3069 24.4314 29.4774 25.9465 29.087C26.0687 29.0555 26.1909 29.0241 26.3132 28.9928ZM81.2404 27.4879C78.576 27.7191 75.9192 27.98 73.2726 28.2737C68.979 28.7502 64.6197 28.9741 60.2636 29.2276M81.2404 27.4879C79.9846 27.5228 78.7291 27.5723 77.4742 27.6411C71.7368 27.9559 65.9916 28.5203 60.2636 29.2276M81.2404 27.4879C90.9191 27.2186 100.62 27.8127 110.284 27.0537C133.883 25.2004 158.05 24.5046 181.663 26.3308C199.808 27.7342 217.933 30.1158 235.999 32.1368C236.335 32.1744 236.67 32.2121 237.003 32.2497M60.2636 29.2276C51.7564 29.7226 43.2613 30.3304 35.2914 33.1524M60.2636 29.2276C54.4075 29.9506 48.5694 30.8229 42.7762 31.7302C40.2767 32.1217 37.7294 32.4747 35.2914 33.1524M35.2914 33.1524C34.9212 33.2834 34.5521 33.4193 34.1843 33.5601C33.7823 33.714 33.2984 33.8451 32.8019 33.9893M35.2914 33.1524C34.4462 33.3873 33.6143 33.6612 32.8019 33.9893M32.8019 33.9893C31.9116 34.2477 30.9806 34.548 30.4076 35.0963C30.1339 35.3583 31.1031 34.7709 31.4462 34.5993C31.8911 34.3769 32.3434 34.1745 32.8019 33.9893ZM237.003 32.2497C241.094 32.711 244.995 33.1535 249.123 33.1535C250.844 33.1535 252.462 33.2995 254.174 33.4697C255.028 33.5546 257.599 33.6394 256.747 33.5375C253.975 33.2058 251.278 32.5719 248.562 31.9608M237.003 32.2497C240.855 32.1243 244.707 32.011 248.562 31.9608M237.003 32.2497C229.985 32.4782 222.968 32.7468 215.936 32.7468C196.182 32.7468 176.438 32.1197 156.689 31.7754C144.884 31.5695 132.972 31.9137 121.189 31.0299C107.866 30.0306 95.1977 29.9222 81.8645 30.7136C80.0056 30.8239 78.1436 30.9269 76.2798 31.02M248.562 31.9608C248.387 31.9215 248.212 31.8822 248.037 31.8432C246.103 31.4114 244.164 31.0137 242.222 30.6455M248.562 31.9608C249.905 31.9433 251.249 31.9335 252.593 31.9335C253.213 31.9335 259.502 31.9878 255.874 31.9335C252.046 31.8763 248.188 31.4187 244.402 30.9169C243.676 30.8207 242.949 30.7306 242.222 30.6455M242.222 30.6455C233.575 29.0058 224.854 27.9485 216.077 27.0537C211.703 26.6078 207.463 25.4119 203.095 25.0431C198.188 24.6287 193.505 24.2732 188.649 23.4391C186.577 23.0831 184.518 23.0474 182.451 23.019M242.222 30.6455C235.173 29.8201 228.074 29.458 221.034 28.4544C210.65 26.9742 200.355 24.981 189.924 23.8006C187.438 23.5192 184.946 23.2405 182.451 23.019M182.451 23.019C181.154 23.0012 179.854 22.9863 178.547 22.8969L178.462 22.8912C177.659 22.8367 172.885 22.5129 175.809 22.6032C178.026 22.6717 180.24 22.8229 182.451 23.019ZM76.2798 31.02C70.1215 31.3275 63.9434 31.5269 57.7884 31.5269C52.7519 31.5269 47.7895 32.3402 42.7762 32.3402C37.3751 32.3402 53.5212 31.1247 58.9214 31.0299C64.7098 30.9282 70.4956 30.939 76.2798 31.02ZM76.2798 31.02C94.0066 31.268 111.719 32.1746 129.45 32.5209C157.885 33.0763 186.314 33.5601 214.756 33.5601C228.179 33.5601 241.622 34.1325 255.026 34.7033L256.299 34.7575C262.338 35.0143 268.379 36 274.427 36" stroke="#FBFE58" stroke-width="5" stroke-linecap="round"/>
</svg>
