<svg width="57" height="148" viewBox="0 0 57 148" fill="none" xmlns="http://www.w3.org/2000/svg">
<circle cx="54" cy="145" r="3" transform="rotate(-90 54 145)" fill="#4299E1"/>
<circle cx="54" cy="66" r="3" transform="rotate(-90 54 66)" fill="#4299E1"/>
<circle cx="20" cy="145" r="3" transform="rotate(-90 20 145)" fill="#4299E1"/>
<circle cx="20" cy="66" r="3" transform="rotate(-90 20 66)" fill="#4299E1"/>
<circle cx="37" cy="145" r="3" transform="rotate(-90 37 145)" fill="#4299E1"/>
<circle cx="37" cy="66" r="3" transform="rotate(-90 37 66)" fill="#4299E1"/>
<circle cx="3" cy="145" r="3" transform="rotate(-90 3 145)" fill="#4299E1"/>
<circle cx="3" cy="66" r="3" transform="rotate(-90 3 66)" fill="#4299E1"/>
<circle cx="54" cy="129" r="3" transform="rotate(-90 54 129)" fill="#4299E1"/>
<circle cx="54" cy="50" r="3" transform="rotate(-90 54 50)" fill="#4299E1"/>
<circle cx="20" cy="129" r="3" transform="rotate(-90 20 129)" fill="#4299E1"/>
<circle cx="20" cy="50" r="3" transform="rotate(-90 20 50)" fill="#4299E1"/>
<circle cx="37" cy="129" r="3" transform="rotate(-90 37 129)" fill="#4299E1"/>
<circle cx="37" cy="50" r="3" transform="rotate(-90 37 50)" fill="#4299E1"/>
<circle cx="3" cy="129" r="3" transform="rotate(-90 3 129)" fill="#4299E1"/>
<circle cx="3" cy="50" r="3" transform="rotate(-90 3 50)" fill="#4299E1"/>
<circle cx="54" cy="113" r="3" transform="rotate(-90 54 113)" fill="#4299E1"/>
<circle cx="54" cy="35" r="3" transform="rotate(-90 54 35)" fill="#4299E1"/>
<circle cx="20" cy="113" r="3" transform="rotate(-90 20 113)" fill="#4299E1"/>
<circle cx="20" cy="35" r="3" transform="rotate(-90 20 35)" fill="#4299E1"/>
<circle cx="37" cy="113" r="3" transform="rotate(-90 37 113)" fill="#4299E1"/>
<circle cx="37" cy="35" r="3" transform="rotate(-90 37 35)" fill="#4299E1"/>
<circle cx="3" cy="113" r="3" transform="rotate(-90 3 113)" fill="#4299E1"/>
<circle cx="3" cy="35" r="3" transform="rotate(-90 3 35)" fill="#4299E1"/>
<circle cx="54" cy="98" r="3" transform="rotate(-90 54 98)" fill="#4299E1"/>
<circle cx="54" cy="19" r="3" transform="rotate(-90 54 19)" fill="#4299E1"/>
<circle cx="20" cy="98" r="3" transform="rotate(-90 20 98)" fill="#4299E1"/>
<circle cx="20" cy="19" r="3" transform="rotate(-90 20 19)" fill="#4299E1"/>
<circle cx="37" cy="98" r="3" transform="rotate(-90 37 98)" fill="#4299E1"/>
<circle cx="37" cy="19" r="3" transform="rotate(-90 37 19)" fill="#4299E1"/>
<circle cx="3" cy="98" r="3" transform="rotate(-90 3 98)" fill="#4299E1"/>
<circle cx="3" cy="19" r="3" transform="rotate(-90 3 19)" fill="#4299E1"/>
<circle cx="54" cy="82" r="3" transform="rotate(-90 54 82)" fill="#4299E1"/>
<circle cx="54" cy="3" r="3" transform="rotate(-90 54 3)" fill="#4299E1"/>
<circle cx="20" cy="82" r="3" transform="rotate(-90 20 82)" fill="#4299E1"/>
<circle cx="20" cy="3" r="3" transform="rotate(-90 20 3)" fill="#4299E1"/>
<circle cx="37" cy="82" r="3" transform="rotate(-90 37 82)" fill="#4299E1"/>
<circle cx="37" cy="3" r="3" transform="rotate(-90 37 3)" fill="#4299E1"/>
<circle cx="3" cy="82" r="3" transform="rotate(-90 3 82)" fill="#4299E1"/>
<circle cx="3" cy="3" r="3" transform="rotate(-90 3 3)" fill="#4299E1"/>
</svg>
